<svg width="25" height="24" viewBox="0 0 25 24" fill="none" xmlns="http://www.w3.org/2000/svg">
<g clip-path="url(#clip0_529_1763)">
<path d="M8.5 12H4.5C3.94772 12 3.5 12.4477 3.5 13V19C3.5 19.5523 3.94772 20 4.5 20H8.5C9.05228 20 9.5 19.5523 9.5 19V13C9.5 12.4477 9.05228 12 8.5 12Z" stroke="#0C4284" stroke-width="1.5" stroke-linecap="round" stroke-linejoin="round"/>
<path d="M14.5 8H10.5C9.94772 8 9.5 8.44772 9.5 9V19C9.5 19.5523 9.94772 20 10.5 20H14.5C15.0523 20 15.5 19.5523 15.5 19V9C15.5 8.44772 15.0523 8 14.5 8Z" stroke="#0C4284" stroke-width="1.5" stroke-linecap="round" stroke-linejoin="round"/>
<path d="M20.5 4H16.5C15.9477 4 15.5 4.44772 15.5 5V19C15.5 19.5523 15.9477 20 16.5 20H20.5C21.0523 20 21.5 19.5523 21.5 19V5C21.5 4.44772 21.0523 4 20.5 4Z" stroke="#0C4284" stroke-width="1.5" stroke-linecap="round" stroke-linejoin="round"/>
<path d="M4.5 20H18.5" stroke="#0C4284" stroke-width="1.5" stroke-linecap="round" stroke-linejoin="round"/>
</g>
<defs>
<clipPath id="clip0_529_1763">
<rect width="24" height="24" fill="white" transform="translate(0.5)"/>
</clipPath>
</defs>
</svg>
