<svg width="25" height="24" viewBox="0 0 25 24" fill="none" xmlns="http://www.w3.org/2000/svg">
<g clip-path="url(#clip0_529_1522)">
<path d="M10.825 4.317C11.251 2.561 13.749 2.561 14.175 4.317C14.2389 4.5808 14.3642 4.82578 14.5407 5.032C14.7172 5.23822 14.9399 5.39985 15.1907 5.50375C15.4414 5.60764 15.7132 5.65085 15.9838 5.62987C16.2544 5.60889 16.5162 5.5243 16.748 5.383C18.291 4.443 20.058 6.209 19.118 7.753C18.9769 7.98466 18.8924 8.24634 18.8715 8.51677C18.8506 8.78721 18.8938 9.05877 18.9975 9.30938C19.1013 9.55999 19.2627 9.78258 19.4687 9.95905C19.6747 10.1355 19.9194 10.2609 20.183 10.325C21.939 10.751 21.939 13.249 20.183 13.675C19.9192 13.7389 19.6742 13.8642 19.468 14.0407C19.2618 14.2172 19.1001 14.4399 18.9963 14.6907C18.8924 14.9414 18.8491 15.2132 18.8701 15.4838C18.8911 15.7544 18.9757 16.0162 19.117 16.248C20.057 17.791 18.291 19.558 16.747 18.618C16.5153 18.4769 16.2537 18.3924 15.9832 18.3715C15.7128 18.3506 15.4412 18.3938 15.1906 18.4975C14.94 18.6013 14.7174 18.7627 14.5409 18.9687C14.3645 19.1747 14.2391 19.4194 14.175 19.683C13.749 21.439 11.251 21.439 10.825 19.683C10.7611 19.4192 10.6358 19.1742 10.4593 18.968C10.2828 18.7618 10.0601 18.6001 9.80935 18.4963C9.55859 18.3924 9.28683 18.3491 9.01621 18.3701C8.74559 18.3911 8.48375 18.4757 8.252 18.617C6.709 19.557 4.942 17.791 5.882 16.247C6.0231 16.0153 6.10755 15.7537 6.12848 15.4832C6.14942 15.2128 6.10624 14.9412 6.00247 14.6906C5.8987 14.44 5.73726 14.2174 5.53127 14.0409C5.32529 13.8645 5.08056 13.7391 4.817 13.675C3.061 13.249 3.061 10.751 4.817 10.325C5.0808 10.2611 5.32578 10.1358 5.532 9.95929C5.73822 9.7828 5.89985 9.56011 6.00375 9.30935C6.10764 9.05859 6.15085 8.78683 6.12987 8.51621C6.10889 8.24559 6.0243 7.98375 5.883 7.752C4.943 6.209 6.709 4.442 8.253 5.382C9.253 5.99 10.549 5.452 10.825 4.317Z" stroke="#0C4284" stroke-width="1.5" stroke-linecap="round" stroke-linejoin="round"/>
<path d="M12.5 15C14.1569 15 15.5 13.6569 15.5 12C15.5 10.3431 14.1569 9 12.5 9C10.8431 9 9.5 10.3431 9.5 12C9.5 13.6569 10.8431 15 12.5 15Z" stroke="#0C4284" stroke-width="1.5" stroke-linecap="round" stroke-linejoin="round"/>
</g>
<defs>
<clipPath id="clip0_529_1522">
<rect width="24" height="24" fill="white" transform="translate(0.5)"/>
</clipPath>
</defs>
</svg>
