<svg width="50" height="50" viewBox="0 0 50 50" fill="none" xmlns="http://www.w3.org/2000/svg">
<g filter="url(#filter0_d_411_9357)">
<rect x="4" y="4" width="40" height="40" rx="20" fill="white"/>
<g clip-path="url(#clip0_411_9357)">
<path d="M22 17C22 16.4696 22.2107 15.9609 22.5858 15.5858C22.9609 15.2107 23.4696 15 24 15C24.5304 15 25.0391 15.2107 25.4142 15.5858C25.7893 15.9609 26 16.4696 26 17C27.1484 17.543 28.1274 18.3883 28.8321 19.4453C29.5367 20.5023 29.9404 21.7311 30 23V26C30.0753 26.6217 30.2954 27.2171 30.6428 27.7381C30.9902 28.2592 31.4551 28.6914 32 29H16C16.5449 28.6914 17.0098 28.2592 17.3572 27.7381C17.7046 27.2171 17.9247 26.6217 18 26V23C18.0596 21.7311 18.4633 20.5023 19.1679 19.4453C19.8726 18.3883 20.8516 17.543 22 17" stroke="#0A376E" stroke-width="1.5" stroke-linecap="round" stroke-linejoin="round"/>
<path d="M21 29V30C21 30.7956 21.3161 31.5587 21.8787 32.1213C22.4413 32.6839 23.2044 33 24 33C24.7956 33 25.5587 32.6839 26.1213 32.1213C26.6839 31.5587 27 30.7956 27 30V29" stroke="#0A376E" stroke-width="1.5" stroke-linecap="round" stroke-linejoin="round"/>
</g>
<rect x="27.5" y="13.5" width="9" height="9" rx="4.5" fill="#1473E6"/>
<rect x="27.5" y="13.5" width="9" height="9" rx="4.5" stroke="#F5F5F5"/>
</g>
<defs>
<filter id="filter0_d_411_9357" x="0" y="0" width="50" height="50" filterUnits="userSpaceOnUse" color-interpolation-filters="sRGB">
<feFlood flood-opacity="0" result="BackgroundImageFix"/>
<feColorMatrix in="SourceAlpha" type="matrix" values="0 0 0 0 0 0 0 0 0 0 0 0 0 0 0 0 0 0 127 0" result="hardAlpha"/>
<feMorphology radius="5" operator="erode" in="SourceAlpha" result="effect1_dropShadow_411_9357"/>
<feOffset dx="1" dy="1"/>
<feGaussianBlur stdDeviation="5"/>
<feColorMatrix type="matrix" values="0 0 0 0 0 0 0 0 0 0 0 0 0 0 0 0 0 0 0.25 0"/>
<feBlend mode="normal" in2="BackgroundImageFix" result="effect1_dropShadow_411_9357"/>
<feBlend mode="normal" in="SourceGraphic" in2="effect1_dropShadow_411_9357" result="shape"/>
</filter>
<clipPath id="clip0_411_9357">
<rect width="24" height="24" fill="white" transform="translate(12 12)"/>
</clipPath>
</defs>
</svg>
